
STARTFONT 2.1
COMMENT Created by Bob Barrie
FONT DECW$SESSION
SIZE 31 78 78
FONTBOUNDINGBOX 31 31 -15 -16
STARTPROPERTIES 5
COMMENT TIMESTAMP "Tue Aug  8 11:38:15 1989"
COMMENT FONT RELEASE "1-1" 
FOUNDRY "Digital Equipment Corporation"
NOTICE "These images are owned by Digital Equipment Corporation"
FONT_ASCENT  16
FONT_DESCENT 16
COPYRIGHT "Copyright (c) Digital Equipment Corporation,1988. All rights reserved"
ENDPROPERTIES
CHARS 14
COMMENT XXXXXXXXXXXXXXXXXXXXXXXXXXXXXXXXXXXXXXXXXXXXXXXXXXXXXXXXXXXXXXXXXX
STARTCHAR decw$c_select_cursor
ENCODING -1 1
SWIDTH 0 0
DWIDTH 16 0
BBX 16 16 0 0
BITMAP
E000
9800
8600
4180
4060
2018
2004
1018
1020
0910
0988
0544
0522
0211
000a
0004
ENDCHAR
STARTCHAR decw$c_help_cursor
ENCODING -1 3
SWIDTH 0 0
DWIDTH 16 0
BBX 16 16 0 0
BITMAP
e000
90e0
8c10
4408
2004
1004
1002
1402
0801
0404
0309
00d1
0022
001c
0000
0000
ENDCHAR
STARTCHAR decw$c_crosshair_cursor
ENCODING -1 19
SWIDTH 0 0
DWIDTH 13 0
BBX 13 13 0 0
BITMAP
0000
0200
0200
0200
0200
0200
7ff0
0200
0200
0200
0200
0200
0000
ENDCHAR
STARTCHAR decw$c_centercursor
ENCODING -1 25
SWIDTH 0 0
DWIDTH 16 0
BBX 16 16 0 0
BITMAP
0400
0a00
0a00
1100
1100
2080
2080
4040
4040
9b20
aaa0
ca60
0a00
0a00
0a00
0e00
ENDCHAR
STARTCHAR decw$c_rightselect_cursor
ENCODING -1 27
SWIDTH 0 0
DWIDTH 16 0
BBX 16 16 0 0
BITMAP
0007
0019
0061
0182
0602
1804
2004
1e08
0408
0890
1190
22a0
44a0
8840
5000
2000
ENDCHAR
STARTCHAR decw$c_wselect_cursor
ENCODING -1 29
SWIDTH 0 0
DWIDTH 16 0
BBX 16 16 0 0
BITMAP
0070
0190
0620
1840
607f
8001
607f
1840
0620
0190
0070
0000
0000
0000
0000
0000
ENDCHAR
STARTCHAR decw$c_eselect_cursor
ENCODING -1 31
SWIDTH 0 0
DWIDTH 16 0
BBX 16 16 0 0
BITMAP
0e00
0980
0460
0218
fe06
8001
fe06
0218
0460
0980
0e00
0000
0000
0000
0000
0000
ENDCHAR
STARTCHAR decw$c_x_cursor
ENCODING -1 33
SWIDTH 0 0
DWIDTH 13 0
BBX 13 12 0 0
BITMAP
0000
6030
3060
18c0
0d80
0700
0700
0d80
18c0
3060
6030
0000
ENDCHAR
STARTCHAR decw$c_circle_cursor
ENCODING -1 35
SWIDTH 0 0
DWIDTH 16 0
BBX 16 13 0 0
BITMAP
0000
0700
18c0
2020
2020
4010
4010
4010
2020
2020
18c0
0700
0000
ENDCHAR
STARTCHAR decw$c_mouse_cursor
ENCODING -1 37
SWIDTH 0 0
DWIDTH 16 0
BBX 16 16 0 0
BITMAP
0100
07c0
1830
2ba8
5bb4
5bb4
bbba
8002
8002
8002
8002
4004
4004
2008
1830
07c0
ENDCHAR
STARTCHAR decw$c_leftpointing_cursor
ENCODING -1 47
SWIDTH 0 0
DWIDTH 16 0
BBX 16 16 0 0
BITMAP
03e0
7f10
800f
7e04
0804
0c04
0405
060c
03f7
0000
0000
0000
0000
0000
0000
0000
ENDCHAR
STARTCHAR decw$c_uppointing_cursor
ENCODING -1 49
SWIDTH 0 0
DWIDTH 16 0
BBX 16 16 0 0
BITMAP
2000
5000
5000
5000
5c00
5700
c180
c080
8080
8080
8080
4080
2180
3f80
2080
2280
ENDCHAR
STARTCHAR decw$c_rightpointing_cursor
ENCODING -1 51
SWIDTH 0 0
DWIDTH 16 0
BBX 16 16 0 0
BITMAP
07c0
08fe
f001
207e
2010
2030
a020
3060
efc0
0000
0000
0000
0000
0000
0000
0000
ENDCHAR
STARTCHAR decw$c_check_cursor
ENCODING -1 53
SWIDTH 0 0
DWIDTH 16 0
BBX 16 16 0 0
BITMAP
0000
000c
0018
0030
0060
60c0
3180
1b00
0e00
0400
0000
0000
0000
0000
0000
0000
ENDCHAR
ENDFONT
comment  DEC/CMS REPLACEMENT HISTORY, Element DECW$SESSION.DECW$BDF
comment  *3    10_FEB_1989 09:51:00 MIKULSKI "stripped shapes from file per BDF spec"
comment  *2     3-FEB-1989 11:33:57 MIKULSKI "Add FOUNDRY;Changed OWNERSHIP to NOTICE;Add COPYRIGHT; Adjust property count"
comment  *1    16-SEP-1988 15:15:10 BARRIE ""
comment  DEC/CMS REPLACEMENT HISTORY, Element DECW$SESSION.DECW$BDF
