STARTFONT 2.1
COMMENT Created by Bob Barrie
FONT DECW$CURSOR
SIZE 31 78 78
FONTBOUNDINGBOX 31 31 -15 -16
STARTPROPERTIES 5
COMMENT TIMESTAMP "Tue Aug  8 11:36:10 1989"
COMMENT FONT RELEASE "1-1"
FOUNDRY "Digital Equipment Corporation"
NOTICE "These images are owned by Digital Equipment Corporation"
FONT_ASCENT  16
FONT_DESCENT 16
COPYRIGHT "Copyright (c) Digital Equipment Corporation,1988. All Rights Reserved."
ENDPROPERTIES
CHARS 56
COMMENT XXXXXXXXXXXXXXXXXXXXXXXXXXXXXXXXXXXXXXXXXXXXXXXXXXXXXXXXXXXXXXXXXX
COMMENT 13-nov-1990 Added Question Mark character and workaround to two pencil
COMMENT             SERVER ACCVIO.
COMMENT XXXXXXXXXXXXXXXXXXXXXXXXXXXXXXXXXXXXXXXXXXXXXXXXXXXXXXXXXXXXXXXXXX
STARTCHAR decw$c_select_cursor
ENCODING -1 0
SWIDTH 0 0
DWIDTH 16 0
BBX 16 16 0 -15
BITMAP
0000
6000
7800
3E00
3F80
1FE0
1FF8
0F80
0FC0
06E0
0670
0238
021c
000e
0004
0000
ENDCHAR
STARTCHAR decw$c_select_cursor_mask
ENCODING -1 1
SWIDTH 0 0
DWIDTH 16 0
BBX 16 16 0 -15
BITMAP
E000
f800
fe00
7f80
7fe0
3ff8
3ffc
1ff8
1fe0
0ff0
0ff8
077c
073e
021f
000e
0004
ENDCHAR
STARTCHAR decw$c_help_cursor
ENCODING -1 2
SWIDTH 0 0
DWIDTH 16 0
BBX 16 16 -2 -14
BITMAP
0000
6000
70e0
3bf0
1ff8
0ff8
07fc
0bfc
07fc
03fb
00f6
002f
001e
000c
0000
0000
ENDCHAR
STARTCHAR decw$c_help_cursor_mask
ENCODING -1 3
SWIDTH 0 0
DWIDTH 16 0
BBX 16 16 -2 -14
BITMAP
e000
f0e0
fbf0
7ff8
3ffc
1ffc
1ffe
1ffe
0fff
07ff
03ff
00ff
003e
001c
0000
0000
ENDCHAR
STARTCHAR decw$c_wait_cursor
ENCODING -1 4
SWIDTH 0 0
DWIDTH 16 0
BBX 16 16 -2 -14
BITMAP
2000
5548
a814
500a
23c4
4760
0f72
4f70
0c72
4ff0
07e2
23c4
100a
0815
02aa
0004
ENDCHAR
STARTCHAR decw$c_wait_cursor_mask
ENCODING -1 5
SWIDTH 0 0
DWIDTH 16 0
BBX 16 16 -2 -14
BITMAP
3000
7d48
fffc
fffe
7ffc
7ffc
3ffe
7ffc
3ffe
7ffc
3ffe
3ffe
1fff
0fff
02be
000c
ENDCHAR
STARTCHAR decw$c_inactive_cursor
ENCODING -1 6
SWIDTH 0 0
DWIDTH 16 0
BBX 16 16 -8 -8
BITMAP
07c0
1830
2008
4004
4004
8002
9ff2
9ff2
9ff2
8002
4004
4004
2008
1830
07c0
0000
ENDCHAR
STARTCHAR decw$c_inactive_cursor_mask
ENCODING -1 7
SWIDTH 0 0
DWIDTH 16 0
BBX 16 16 -8 -8
BITMAP
07c0
1ff0
3ff8
7ffc
7ffc
fffe
fffe
fffe
fffe
fffe
7ffc
7ffc
3ff8
1ff0
07c0
0000
ENDCHAR
STARTCHAR decw$c_resize_cursor
ENCODING -1 8
SWIDTH 0 0
DWIDTH 16 0
BBX 16 16 -6 -9
BITMAP
0000
78f0
4010
5dd0
5050
1040
0000
1040
5050
5dd0
4010
78f0
0000
0000
0000
0000
ENDCHAR
STARTCHAR decw$c_resize_cursor_mask
ENCODING -1 9
SWIDTH 0 0
DWIDTH 16 0
BBX 16 16 -6 -9
BITMAP
f078
f8f8
f8f8
fdf8
7ff0
18c0
0880
18c0
7ff0
fdf8
f8f8
f8f8
f078
0000
0000
0000
ENDCHAR
STARTCHAR decw$c_vpane_cursor
ENCODING -1 10
SWIDTH 0 0
DWIDTH 16 0
BBX 16 16 -6 -8
BITMAP
0200
0500
0880
1240
2720
4f90
8008
7ff0
8008
4f90
2720
1240
0880
0500
0200
0000
ENDCHAR
STARTCHAR decw$c_vpane_cursor_mask
ENCODING -1 11
SWIDTH 0 0
DWIDTH 16 0
BBX 16 16 -6 -8
BITMAP
0200
0700
0f80
1fc0
3fe0
7ff0
fff8
7ff0
fff8
7ff0
3fe0
1fc0
0f80
0700
0200
0000
ENDCHAR
STARTCHAR decw$c_hpane_cursor
ENCODING -1 12
SWIDTH 0 0
DWIDTH 16 0
BBX 16 16 -7 -9
BITMAP
0280
0540
0920
1110
2548
4d64
9d72
4d64
2548
1110
0920
0540
0280
0000
0000
0000
ENDCHAR
STARTCHAR decw$c_hpane_cursor_mask
ENCODING -1 13
SWIDTH 0 0
DWIDTH 16 0
BBX 16 16 -7 -9
BITMAP
0280
07c0
0fe0
1ff0
3ff8
7ffc
fffe
7ffc
3ff8
1ff0
0fe0
07c0
0280
0000
0000
0000
ENDCHAR
STARTCHAR decw$c_text_insertion_cursor
ENCODING -1 14
SWIDTH 0 0
DWIDTH 7 0
BBX 7 16 -3 -7
BITMAP
0000
8800
5000
2000
2000
2000
2000
2000
2000
2000
2000
2000
2000
5000
8800
0000
ENDCHAR
STARTCHAR decw$c_text_insertion_cursor_mask
ENCODING -1 15
SWIDTH 0 0
DWIDTH 7 0
BBX 7 16 -3 -7
BITMAP
0000
cc00
7800
3000
3000
3000
3000
3000
3000
3000
3000
3000
3000
7800
cc00
0000
ENDCHAR
STARTCHAR decw$c_bitmap_text_insertion_cursor
ENCODING -1 16
SWIDTH 0 0
DWIDTH 8 0
BBX 8 16 -3 -5
BITMAP
0000
4400
2800
1000
1000
1000
1000
1000
1000
1000
aa00
1000
1000
2800
4400
0000
ENDCHAR
STARTCHAR decw$c_bitmap_text_insertion_cursor_mask
ENCODING -1 17
SWIDTH 0 0
DWIDTH 8 0
BBX 8 16 -3 -5
BITMAP
0000
6600
3c00
1800
1800
1800
1800
1800
1800
1800
ff00
1800
1800
3c00
6600
0000
ENDCHAR
STARTCHAR decw$c_crosshair_cursor
ENCODING -1 18
SWIDTH 0 0
DWIDTH 13 0
BBX 13 13 -6 -6
BITMAP
0700
0500
0500
0500
0500
fdf8
8008
fdf8
0500
0500
0500
0500
0700
ENDCHAR
STARTCHAR decw$c_crosshair_cursor_mask
ENCODING -1 19
SWIDTH 0 0
DWIDTH 13 0
BBX 13 13 -6 -6
BITMAP
0700
0700
0700
0700
0700
fff8
fff8
fff8
0700
0700
0700
0700
0700
ENDCHAR
STARTCHAR decw$c_draw_cursor
ENCODING -1 20
SWIDTH 0 0
DWIDTH 16 0
BBX 16 15 -8 -7
BITMAP
0380
0280
06c0
0820
16d0
2ee8
ec6e
8002
ec6e
2ee8
16d0
0820
06c0
0280
0380
ENDCHAR
STARTCHAR decw$c_draw_cursor_mask
ENCODING -1 21
SWIDTH 0 0
DWIDTH 16 0
BBX 16 15 -8 -7
BITMAP
0380
0380
07c0
0fe0
1ff0
3ff8
fc7e
fc7e
fc7e
3ff8
1ff0
0fe0
07c0
0380
0380
ENDCHAR
STARTCHAR decw$c_rpencil_cursor
ENCODING -1 22
SWIDTH 0 0
DWIDTH 16 0
BBX 16 16 -1 -2
BITMAP
0000
001C
001C
002C
00D0
01E0
03e0
07c0
0f80
1f00
1e00
2c00
3000
4000
0000
0000
ENDCHAR
STARTCHAR decw$c_rpencil_cursor_mask
ENCODING -1 23
SWIDTH 0 0
DWIDTH 16 0
BBX 16 16 -1 -2
BITMAP
001c
003e
007e
00fe
01fc
03f8
07f0
0fe0
1fc0
3f80
3f00
7e00
7c00
f000
c000
0000
ENDCHAR
STARTCHAR decw$c_centercursor
ENCODING -1 24
SWIDTH 0 0
DWIDTH 16 0
BBX 16 16 -5 -15
BITMAP
0000
0400
0400
0e00
0e00
1f00
1f00
3f80
3f80
64c0
4440
0400
0400
0400
0400
0000
ENDCHAR
STARTCHAR decw$c_centercursor_mask
ENCODING -1 25
SWIDTH 0 0
DWIDTH 16 0
BBX 16 16 -5 -15
BITMAP
0400
0e00
0e00
1f00
1f00
3f80
3f80
7fc0
7fc0
ffe0
eee0
ce60
0e00
0e00
0e00
0e00
ENDCHAR
STARTCHAR decw$c_rightselect_cursor
ENCODING -1 26
SWIDTH 0 0
DWIDTH 16 0
BBX 16 16 -15 -15
BITMAP
0000
0006
001e
007c
01fc
07f8
1ff8
01f0
03f0
0760
0e60
1c40
3840
7000
2000
0000
ENDCHAR
STARTCHAR decw$c_rightselect_cursor_mask
ENCODING -1 27
SWIDTH 0 0
DWIDTH 16 0
BBX 16 16 -15 -15
BITMAP
0007
001f
007f
01fe
07fe
1ffc
3ffc
1ff8
07f8
0ff0
1ff0
3ee0
7ce0
f840
7000
2000
ENDCHAR
STARTCHAR decw$c_wselect_cursor
ENCODING -1 28
SWIDTH 0 0
DWIDTH 16 0
BBX 16 16 0 -10
BITMAP
0000
0060
01c0
0780
1f80
7ffe
1f80
0780
01c0
0060
0000
0000
0000
0000
0000
0000
ENDCHAR
STARTCHAR decw$c_wselect_cursor_mask
ENCODING -1 29
SWIDTH 0 0
DWIDTH 16 0
BBX 16 16 0 -10
BITMAP
0070
01f0
07e0
1fc0
7fff
ffff
7fff
1fc0
07e0
01f0
0070
0000
0000
0000
0000
0000
ENDCHAR
STARTCHAR decw$c_eselect_cursor
ENCODING -1 30
SWIDTH 0 0
DWIDTH 16 0
BBX 16 16 -15 -10
BITMAP
0000
0600
0380
01e0
01f8
7ffe
01f8
01e0
0380
0600
0000
0000
0000
0000
0000
0000
ENDCHAR
STARTCHAR decw$c_eselect_cursor_mask
ENCODING -1 31
SWIDTH 0 0
DWIDTH 16 0
BBX 16 16 -15 -10
BITMAP
0e00
0f80
07e0
03f8
fffe
ffff
fffe
03f8
07e0
0f80
0e00
0000
0000
0000
0000
0000
ENDCHAR
STARTCHAR decw$c_x_cursor
ENCODING -1 32
SWIDTH 0 0
DWIDTH 13 0
BBX 13 12 -6 -6
BITMAP
e038
9048
4890
2520
1240
0880
0880
1240
2520
4890
9048
e038
ENDCHAR
STARTCHAR decw$c_x_cursor_mask
ENCODING -1 33
SWIDTH 0 0
DWIDTH 13 0
BBX 13 12 -6 -6
BITMAP
e038
f078
78f0
3de0
1fc0
0f80
0f80
1fc0
3de0
78f0
f078
e038
ENDCHAR
STARTCHAR decw$c_circle_cursor
ENCODING -1 34
SWIDTH 0 0
DWIDTH 16 0
BBX 16 13 -7 -7
BITMAP
0700
18c0
2020
4010
4010
8008
8008
8008
4010
4010
2020
18c0
0700
ENDCHAR
STARTCHAR decw$c_circle_cursor_mask
ENCODING -1 35
SWIDTH 0 0
DWIDTH 16 0
BBX 16 13 -7 -7
BITMAP
0700
1fc0
38e0
6030
6030
c018
c018
c018
6030
6030
38e0
1fc0
0700
ENDCHAR
STARTCHAR decw$c_mouse_cursor
ENCODING -1 36
SWIDTH 0 0
DWIDTH 16 0
BBX 16 16 -8 -7
BITMAP
0000
0000
07c0
1450
2448
2448
4444
7ffc
7ffc
7ffc
7ffc
3ff8
3ff8
1ff0
07c0
0000
ENDCHAR
STARTCHAR decw$c_mouse_cursor_mask
ENCODING -1 37
SWIDTH 0 0
DWIDTH 16 0
BBX 16 16 -8 -7
BITMAP
0100
07c0
1ff0
3ff8
7ffc
7ffc
fffe
fffe
fffe
fffe
fffe
7ffc
7ffc
3ff8
1ff0
07c0
ENDCHAR
STARTCHAR decw$c_lpencil_cursor
ENCODING -1 38
SWIDTH 0 0
DWIDTH 16 0
BBX 16 16 -1 -2
BITMAP
0000
3800
3800
3400
0b00
0780
07c0
03e0
01f0
00f8
0078
0034
000c
0002
0000
0000
ENDCHAR
STARTCHAR decw$c_lpencil_cursor_mask
ENCODING -1 39
SWIDTH 0 0
DWIDTH 16 0
BBX 16 16 -1 -2
BITMAP
3800
7c00
7e00
7f00
3f80
1fc0
0fe0
07f0
03f8
01fc
00fc
007e
003e
000f
0003
0000
ENDCHAR
STARTCHAR decw$c_leftgrab_cursor
ENCODING -1 40
SWIDTH 0 0
DWIDTH 16 0
BBX 16 16 0 -15
BITMAP
0000
6c00
3680
5b40
6da0
36f0
1bf8
0ff8
07f8
3bf8
0ff6
07ee
005c
003c
0018
0000
ENDCHAR
STARTCHAR decw$c_leftgrab_cursor_mask
ENCODING -1 41
SWIDTH 0 0
DWIDTH 16 0
BBX 16 16 0 -15
BITMAP
6c00
ff80
7fc0
ffe0
fff0
7ff8
3ffc
1ffc
3ffc
7ffe
7fff
0ffe
07fe
007c
0038
0010
ENDCHAR
STARTCHAR decw$c_grabhand_cursor
ENCODING -1 42
SWIDTH 0 0
DWIDTH 16 0
BBX 16 16 -8 -15
BITMAP
0000
0100
0540
0540
0540
0550
6550
37d0
17f0
1ff0
1ff0
0ff0
07e0
07e0
0000
07e0
ENDCHAR
STARTCHAR decw$c_grabhand_cursor_mask
ENCODING -1 43
SWIDTH 0 0
DWIDTH 16 0
BBX 16 16 -8 -15
BITMAP
0100
07c0
0fe0
0fe0
0ff0
6ff8
fff8
7ff8
3ff8
3ff8
3ff8
1ff8
0ff0
0ff0
0ff0
0ff0
ENDCHAR
STARTCHAR decw$c_rightgrab_cursor
ENCODING -1 44
SWIDTH 0 0
DWIDTH 16 0
BBX 16 16 -15 -15
BITMAP
0000
0036
016c
02da
05b6
0f6c
1fd8
1ff0
1fe0
1fdc
6ff0
77e0
3a00
3c00
1800
0000
ENDCHAR
STARTCHAR decw$c_rightgrab_cursor_mask
ENCODING -1 45
SWIDTH 0 0
DWIDTH 16 0
BBX 16 16 -15 -15
BITMAP
0036
01ff
03fe
07ff
0fff
1ffe
3ffc
3ff8
3ffc
7ffe
fffe
7ff0
7fe0
3e00
1c00
0800
ENDCHAR
STARTCHAR decw$c_leftpointing_cursor
ENCODING -1 46
SWIDTH 0 0
DWIDTH 16 0
BBX 16 16 0 -13
BITMAP
0000
00e0
7ff0
01fb
07fb
03fb
03fa
01f3
0000
0000
0000
0000
0000
0000
0000
0000
ENDCHAR
STARTCHAR decw$c_leftpointing_cursor_mask
ENCODING -1 47
SWIDTH 0 0
DWIDTH 16 0
BBX 16 16 0 -13
BITMAP
03e0
7ff0
ffff
7fff
0fff
0fff
07ff
07ff
03f7
0000
0000
0000
0000
0000
0000
0000
ENDCHAR
STARTCHAR decw$c_uppointing_cursor
ENCODING -1 48
SWIDTH 0 0
DWIDTH 16 0
BBX 16 16 -2 -15
BITMAP
0000
2000
2000
2000
2000
2800
3e00
3f00
7f00
7f00
7f00
3f00
1e00
0000
1f00
1d00
ENDCHAR
STARTCHAR decw$c_uppointing_cursor_mask
ENCODING -1 49
SWIDTH 0 0
DWIDTH 16 0
BBX 16 16 -2 -15
BITMAP
2000
7000
7000
7000
7c00
7f00
ff80
ff80
ff80
ff80
ff80
7f80
3f00
3f80
3f80
3f80
ENDCHAR
STARTCHAR decw$c_rightpointing_cursor
ENCODING -1 50
SWIDTH 0 0
DWIDTH 16 0
BBX 16 16 -15 -13
BITMAP
0000
0700
0ffe
df80
dfe0
dfc0
5fc0
cf80
0000
0000
0000
0000
0000
0000
0000
0000
ENDCHAR
STARTCHAR decw$c_rightpointing_cursor_mask
ENCODING -1 51
SWIDTH 0 0
DWIDTH 16 0
BBX 16 16 -15 -13
BITMAP
07c0
0ffe
ffff
fffe
fff0
fff0
ffe0
ffe0
efc0
0000
0000
0000
0000
0000
0000
0000
ENDCHAR
STARTCHAR decw$c_check_cursor
ENCODING -1 52
SWIDTH 0 0
DWIDTH 16 0
BBX 16 16 -5 -6
BITMAP
000e
0012
0024
0048
e090
9120
4a40
2480
1100
0a00
0400
0000
0000
0000
0000
0000
ENDCHAR
STARTCHAR decw$c_check_cursor_mask
ENCODING -1 53
SWIDTH 0 0
DWIDTH 16 0
BBX 16 16 -5 -6
BITMAP
000e
001e
003c
0078
e0f0
f1e0
7bc0
3f80
1f00
0e00
0400
0000
0000
0000
0000
0000
ENDCHAR
STARTCHAR decw$c_questionmark_cursor
ENCODING -1 54
SWIDTH 0 0
DWIDTH 16 0
BBX 16 16 -5 -10
BITMAP
0000
1e00
3f00
7380
6180
6180
0380
0700
0e00
0c00
0c00
0000
0c00
0c00
0c00
0000
ENDCHAR
STARTCHAR decw$c_questionmark_mask
ENCODING -1 55
SWIDTH 0 0
DWIDTH 16 0
BBX 16 16 -5 -10
BITMAP
1e00
3f00
7f80
ffc0
f3c0
f3c0
f7c0
0f80
1f00
1e00
1e00
1e00
1e00
1e00
1e00
1e00
ENDCHAR
ENDFONT
COMMENT  DEC/CMS REPLACEMENT HISTORY, Element DECW$CURSOR.DECW$BDF
COMMENT  *14   13-NOV-1990 14:10:50 BARRIE "Added Question Mark character and workaround to two pencil SERVER ACCVIO."
COMMENT  *13   11-AUG-1989 09:58:12 BARRIE ""
COMMENT  *12   22-FEB-1989 18:02:24 BARRIE "REL1-0 UPDATE"
COMMENT  *11   22-FEB-1989 08:21:40 BARRIE "TAKE IMAGE OFF - NOT STANDARD"
COMMENT  *10   18-OCT-1988 14:36:14 BARRIE "ADD COPYRIGHT"
COMMENT  *9    14-SEP-1988 09:29:22 BARRIE "Changed bitmap cursor and added check mark..."
COMMENT  *8    11-AUG-1988 16:55:39 BARRIE "switched lpencil and rpencil to match original order"
COMMENT  *7    11-AUG-1988 15:29:35 BARRIE "Added new cursors"
COMMENT  *6    14-JUL-1988 15:40:10 BARRIE "standard BDF format"
COMMENT  *5    27-JUN-1988 15:50:19 BARRIE "bit correction in the pencil"
COMMENT  *4    18-JUN-1988 01:41:24 BARRIE ""
COMMENT  *3    18-MAY-1988 10:07:39 BARRIE "added 'draw_cursor' to font; modified the first three cursors"
COMMENT  *2     5-JAN-1988 14:53:29 BARRIE "fixed wait cursor as per Eliott Tarlin..."
COMMENT  *1    30-DEC-1987 13:26:17 GEORGE "Initial Entry"
COMMENT  DEC/CMS REPLACEMENT HISTORY, Element DECW$CURSOR.DECW$BDF
